<svg width="594" height="322" viewBox="0 0 594 322" fill="none" xmlns="http://www.w3.org/2000/svg">
<path d="M545.411 150.429C546.006 178.08 535.323 199.764 512.778 215.087C500.069 223.725 485.542 227.332 470.207 227.356C402.559 227.461 334.911 227.507 267.263 227.576C247.935 227.596 228.606 227.622 209.278 227.644C206.554 227.647 203.831 227.644 201.108 227.644C201.077 227.135 201.046 226.626 201.015 226.117C246.915 216.36 292.815 206.604 338.715 196.847C338.674 196.545 338.634 196.244 338.593 195.942C267.287 202.817 195.982 209.693 124.676 216.568C124.589 216.202 124.502 215.837 124.415 215.471C126.583 214.951 128.733 214.327 130.923 213.925C162.347 208.156 193.705 201.983 225.221 196.762C290.922 185.877 356.692 175.407 422.463 164.949C461.101 158.806 499.788 152.96 538.485 147.194C540.781 146.852 545.28 143.905 545.411 150.429Z" fill="#D30B15"/>
<path d="M475.232 142.846C417.557 152.896 360.287 162.748 303.061 172.844C249.926 182.218 196.832 191.826 143.729 201.379C100.478 209.16 57.2378 217.008 13.9956 224.842C10.4089 225.491 6.85553 226.332 3.25995 226.92C2.49947 227.045 1.62193 226.454 0 225.94C146.666 182.356 293.669 143.609 441.67 108.594C441.668 108.002 441.666 107.409 441.664 106.817C433.43 105.866 425.216 104.422 416.957 104.099C408.33 103.761 399.612 104.025 391.024 104.909C382.606 105.775 374.203 107.348 365.976 109.358C357.819 111.351 349.889 114.276 340.661 117.168C359.279 96.7958 381.187 83.8165 406.69 75.0729C405.151 72.8386 404.018 70.8855 402.595 69.1736C382.821 45.3859 358.606 28.9369 327.225 25.4406C303.039 22.746 281.164 29.7815 261.063 43.1826C243.951 54.5912 230.374 69.2735 220.153 86.9766C217.322 91.8806 214.574 92.8473 209.126 91.5984C160.894 80.5417 114.085 104.496 97.4125 148.977C94.4801 156.801 93.4931 165.426 92.2617 173.778C91.7765 177.069 90.9855 178.8 87.7113 179.748C82.9805 181.118 78.4057 183.027 73.3429 184.858C70.4764 174.664 70.961 165.04 71.7085 155.481C75.2371 110.355 110.393 76.8261 150.315 68.9961C164.99 66.1179 179.76 66.1351 194.361 69.7069C198.155 70.6352 200.14 69.8031 202.314 66.3281C221.646 35.4233 248.31 13.3624 283.903 4.56164C334.718 -8.00282 378.747 5.558 415.132 43.1421C421.229 49.4411 426.286 56.7993 431.413 63.9619C433.467 66.8318 435.262 68.112 438.995 67.8693C459.302 66.5491 478.967 69.5823 497.241 78.7886C517.526 89.0075 534.172 103.136 543.093 124.808C543.834 126.609 544.457 128.46 545.463 131.175C521.855 135.091 498.755 138.922 475.232 142.846Z" fill="#D40B15"/>
<path d="M74.6622 270.231C75.564 280.018 74.5224 288.788 65.6809 294.364C62.9227 296.104 59.6389 297.01 55.8346 298.62C63.6734 305.867 71.3697 312.981 79.9952 320.955C71.9302 320.955 64.9021 321.048 57.8817 320.858C56.777 320.829 55.574 319.658 54.643 318.775C49.9337 314.312 44.9871 310.043 40.7299 305.175C36.7892 300.669 32.4682 298.857 26.4424 299.128C14.9772 299.642 17.11 298.16 16.8724 308.708C16.7864 312.522 16.8586 316.34 16.8586 321.027C13.9057 321.027 11.1668 321.027 8.42792 321.027C5.78122 321.027 3.13452 321.027 0 321.027C0 297.703 0 274.727 0 251.996C18.5986 251.996 36.8952 251.356 55.1191 252.231C66.4153 252.773 71.9156 258.896 74.6622 270.231ZM18.84 266.331C18.1227 267.415 16.8623 268.462 16.7871 269.589C16.5324 273.401 16.8157 277.246 16.6651 281.07C16.545 284.119 17.7832 285.112 20.7878 285.058C29.444 284.903 38.1059 285.084 46.7633 284.964C53.1063 284.876 56.9561 281.044 56.9893 275.134C57.0212 269.434 53.4051 266.26 46.7417 266.244C37.7499 266.223 28.758 266.262 18.84 266.331Z" fill="#D60A15"/>
<path d="M450.091 265.726C460.444 275.569 470.549 285.163 481.788 295.834C481.98 292.12 482.185 289.902 482.194 287.683C482.235 277.693 482.429 267.696 482.135 257.715C481.993 252.895 483.159 250.553 488.472 251.189C492.031 251.616 495.682 251.271 499.554 251.271C499.554 274.644 499.554 297.384 499.554 320.753C492.085 320.746 485.2 322.687 478.848 315.973C467.995 304.499 456.129 293.982 444.655 283.098C442.628 281.175 440.44 279.423 437.264 276.671C437.264 291.976 437.264 306.097 437.264 320.617C431.071 320.617 425.678 320.617 419.722 320.617C419.57 318.708 419.287 316.789 419.285 314.87C419.259 295.555 419.374 276.24 419.212 256.926C419.175 252.571 420.721 251.497 424.981 251.122C432.234 250.483 437.859 252.283 442.364 258.143C444.471 260.884 447.326 263.05 450.091 265.726Z" fill="#D30A14"/>
<path d="M234.545 251.399C247.367 252.306 258.146 256.05 264.786 267.525C272.257 280.435 271.137 308.502 252.164 316.788C247.089 319.005 241.317 320.489 235.808 320.683C220.866 321.21 205.894 320.864 190.55 320.864C190.55 297.84 190.55 274.989 190.55 251.323C205.279 251.323 219.683 251.323 234.545 251.399ZM215.472 306.771C220.789 306.783 226.126 307.086 231.42 306.737C238.714 306.256 245.833 304.845 249.19 297.106C252.239 290.078 252.033 282.919 249.313 275.779C247.501 271.024 244.007 267.615 239.207 267.108C228.91 266.02 218.523 265.782 207.841 265.177C207.841 279.661 207.841 292.867 207.841 306.767C210.286 306.767 212.394 306.767 215.472 306.771Z" fill="#D30A15"/>
<path d="M160.268 289.576C160.511 293.458 158.064 293.062 155.914 293.068C145.256 293.094 134.597 293.087 123.938 293.146C117.146 293.184 117.145 293.227 117.125 299.978C117.12 301.779 117.124 303.581 117.124 306.12C133.871 306.12 150.106 306.12 166.626 306.12C166.626 311.278 166.626 315.699 166.626 320.608C144.481 320.608 122.442 320.608 99.988 320.608C99.988 297.751 99.988 274.878 99.988 251.573C102.207 251.467 104.168 251.295 106.129 251.291C124.615 251.251 143.102 251.325 161.587 251.152C165.376 251.116 167.16 252.027 166.734 256.151C166.412 259.26 166.67 262.43 166.67 266.242C163.991 266.242 161.696 266.244 159.401 266.241C147.077 266.23 134.749 266.374 122.43 266.118C118.186 266.03 116.674 267.573 117.143 271.59C117.258 272.576 117.258 273.596 117.153 274.584C116.769 278.18 118.137 279.613 121.934 279.544C132.422 279.354 142.916 279.508 153.408 279.525C155.392 279.528 157.376 279.525 160.277 279.525C160.277 282.96 160.277 286.046 160.268 289.576Z" fill="#D40A15"/>
<path d="M535.02 251.277C554.776 251.271 574.054 251.271 593.708 251.271C593.708 256.247 593.708 260.836 593.708 266.257C591.932 266.257 590.019 266.258 588.105 266.257C575.45 266.246 562.791 266.379 550.14 266.14C545.957 266.061 544.202 267.006 544.404 271.619C544.781 280.21 543.173 279.477 552.524 279.524C562.515 279.574 572.507 279.614 582.498 279.687C583.966 279.698 585.433 279.869 587.236 279.988C587.236 284.355 587.236 288.418 587.236 293.022C573.075 293.022 558.986 293.022 544.55 293.022C544.55 297.468 544.55 301.383 544.55 305.928C560.864 305.928 577.097 305.928 593.804 305.928C593.804 311.116 593.804 315.692 593.804 320.676C571.843 320.676 549.81 320.676 526.997 320.676C526.997 318.852 526.995 317.097 526.998 315.342C527.023 296.525 527.046 277.707 527.075 258.89C527.088 250.232 526.553 251.51 535.02 251.277Z" fill="#D40A15"/>
<path d="M308.941 266.941C308.938 280.057 308.938 292.674 308.938 305.986C324.019 305.986 338.71 305.986 353.748 305.986C353.748 311.255 353.748 315.832 353.748 320.731C333.167 320.731 312.641 320.731 291.79 320.731C291.79 297.708 291.79 274.965 291.79 251.708C297.339 251.708 302.702 251.708 308.943 251.708C308.943 256.631 308.943 261.536 308.941 266.941Z" fill="#D50A14"/>
<path d="M391.935 258.077C391.934 279.139 391.934 299.718 391.934 320.652C385.931 320.652 380.532 320.652 374.805 320.652C374.805 297.68 374.805 274.81 374.805 251.576C380.499 251.576 385.877 251.576 391.936 251.576C391.936 253.719 391.936 255.656 391.935 258.077Z" fill="#D90C16"/>
</svg>
