<svg width="281" height="152" viewBox="0 0 281 152" fill="none" xmlns="http://www.w3.org/2000/svg">
<path d="M258.1 71.1861C258.381 84.2709 253.326 94.5325 242.657 101.784C236.643 105.871 229.769 107.578 222.512 107.589C190.499 107.639 158.487 107.661 126.474 107.694C117.328 107.703 108.181 107.715 99.0345 107.726C97.7458 107.727 96.4571 107.726 95.1684 107.726C95.1536 107.485 95.1389 107.244 95.1242 107.003C116.845 102.386 138.566 97.769 160.287 93.1518C160.268 93.0091 160.248 92.8665 160.229 92.7238C126.486 95.9773 92.7426 99.2309 58.9993 102.484C58.9581 102.311 58.9169 102.138 58.8757 101.965C59.9019 101.719 60.9191 101.424 61.9555 101.234C76.8261 98.5038 91.6653 95.5823 106.579 93.1116C137.67 87.9607 168.794 83.0062 199.918 78.0573C218.203 75.15 236.51 72.384 254.822 69.6551C255.908 69.4932 258.038 68.0989 258.1 71.1861Z" fill="#D30B15"/>
<path d="M224.889 67.5974C197.597 72.3534 170.495 77.0157 143.414 81.7933C118.27 86.2292 93.145 90.776 68.0156 95.2968C47.548 98.9789 27.0861 102.693 6.62301 106.4C4.92571 106.707 3.24418 107.105 1.54267 107.383C1.1828 107.442 0.767532 107.163 0 106.92C69.4053 86.2947 138.97 67.9588 209.007 51.389C209.006 51.1086 209.005 50.8283 209.005 50.5479C205.108 50.0978 201.221 49.4145 197.313 49.2617C193.23 49.102 189.104 49.2267 185.041 49.645C181.057 50.0551 177.081 50.7994 173.188 51.7506C169.327 52.6937 165.575 54.078 161.208 55.4465C170.018 45.8058 180.386 39.6637 192.454 35.526C191.726 34.4687 191.19 33.5444 190.516 32.7344C181.159 21.4776 169.7 13.6935 154.85 12.039C143.404 10.7639 133.052 14.0932 123.54 20.4349C115.443 25.8337 109.018 32.7816 104.181 41.1591C102.841 43.4798 101.541 43.9372 98.9626 43.3462C76.1384 38.114 53.9873 49.4496 46.0976 70.499C44.7099 74.2013 44.2428 78.2831 43.6601 82.2353C43.4305 83.7927 43.0562 84.6119 41.5068 85.0606C39.2681 85.709 37.1032 86.612 34.7073 87.4784C33.3509 82.6545 33.5802 78.1005 33.9339 73.5766C35.6037 52.2222 52.2404 36.3557 71.1323 32.6504C78.0768 31.2883 85.0662 31.2965 91.9754 32.9867C93.7711 33.426 94.7104 33.0323 95.7391 31.3878C104.887 16.763 117.505 6.32334 134.349 2.15866C158.395 -3.7871 179.231 2.63016 196.449 20.4157C199.334 23.3965 201.727 26.8786 204.153 30.2681C205.126 31.6262 205.975 32.232 207.742 32.1171C217.351 31.4924 226.657 32.9278 235.305 37.2844C244.904 42.1202 252.781 48.8058 257.003 59.0615C257.354 59.9142 257.648 60.7901 258.124 62.0746C246.953 63.9277 236.021 65.7408 224.889 67.5974Z" fill="#D40B15"/>
<path d="M35.3317 127.879C35.7584 132.51 35.2655 136.66 31.0816 139.299C29.7763 140.122 28.2224 140.551 26.4221 141.313C30.1315 144.742 33.7736 148.109 37.8553 151.882C34.0389 151.882 30.713 151.926 27.3908 151.837C26.868 151.823 26.2987 151.269 25.8582 150.851C23.6297 148.739 21.2888 146.718 19.2742 144.415C17.4094 142.283 15.3646 141.425 12.5131 141.553C7.0875 141.797 8.09681 141.096 7.98435 146.087C7.94367 147.892 7.97781 149.698 7.97781 151.917C6.58044 151.917 5.28435 151.917 3.98826 151.917C2.73579 151.917 1.48332 151.917 0 151.917C0 140.879 0 130.006 0 119.25C8.80122 119.25 17.4596 118.947 26.0835 119.361C31.4291 119.618 34.0319 122.515 35.3317 127.879ZM8.91548 126.033C8.57604 126.546 7.97959 127.042 7.94398 127.575C7.82347 129.379 7.95756 131.199 7.88629 133.008C7.82945 134.451 8.41537 134.921 9.83719 134.895C13.9335 134.822 18.0325 134.907 22.1293 134.851C25.131 134.809 26.9528 132.996 26.9685 130.199C26.9836 127.502 25.2724 126 22.1191 125.992C17.864 125.982 13.6089 126.001 8.91548 126.033Z" fill="#D60A15"/>
<path d="M212.992 125.747C217.892 130.405 222.673 134.945 227.992 139.995C228.083 138.237 228.18 137.187 228.184 136.138C228.203 131.41 228.295 126.679 228.156 121.956C228.089 119.675 228.641 118.567 231.155 118.868C232.839 119.07 234.567 118.906 236.399 118.906C236.399 129.967 236.399 140.728 236.399 151.787C232.865 151.783 229.607 152.702 226.601 149.525C221.465 144.095 215.849 139.118 210.42 133.968C209.461 133.058 208.425 132.229 206.922 130.926C206.922 138.169 206.922 144.852 206.922 151.722C203.992 151.722 201.439 151.722 198.621 151.722C198.549 150.819 198.415 149.911 198.414 149.003C198.402 139.863 198.456 130.722 198.38 121.583C198.362 119.522 199.094 119.014 201.11 118.836C204.542 118.534 207.204 119.386 209.335 122.159C210.333 123.456 211.684 124.481 212.992 125.747Z" fill="#D30A14"/>
<path d="M110.992 118.967C117.059 119.396 122.16 121.168 125.302 126.598C128.838 132.707 128.308 145.99 119.329 149.911C116.928 150.959 114.196 151.662 111.589 151.754C104.518 152.003 97.4332 151.839 90.1721 151.839C90.1721 140.944 90.1721 130.13 90.1721 118.931C97.1423 118.931 103.958 118.931 110.992 118.967ZM101.966 145.17C104.482 145.176 107.008 145.319 109.513 145.154C112.965 144.926 116.333 144.259 117.922 140.596C119.365 137.271 119.267 133.883 117.98 130.504C117.123 128.254 115.469 126.641 113.198 126.401C108.325 125.886 103.41 125.773 98.3547 125.487C98.3547 132.341 98.3547 138.591 98.3547 145.168C99.5117 145.168 100.509 145.168 101.966 145.17Z" fill="#D30A15"/>
<path d="M75.8423 137.033C75.9569 138.87 74.799 138.683 73.7819 138.686C68.738 138.698 63.694 138.695 58.6501 138.723C55.4358 138.741 55.4353 138.761 55.426 141.956C55.4235 142.808 55.4256 143.661 55.4256 144.862C63.3506 144.862 71.0334 144.862 78.8508 144.862C78.8508 147.303 78.8508 149.395 78.8508 151.718C68.3713 151.718 57.9419 151.718 47.3164 151.718C47.3164 140.902 47.3164 130.078 47.3164 119.05C48.3663 118.999 49.2942 118.918 50.2223 118.916C58.9704 118.897 67.7189 118.932 76.4664 118.85C78.2594 118.833 79.1038 119.264 78.9018 121.216C78.7496 122.687 78.8717 124.187 78.8717 125.991C77.6039 125.991 76.518 125.992 75.432 125.991C69.5998 125.985 63.7661 126.053 57.9363 125.933C55.9279 125.891 55.2125 126.621 55.4346 128.522C55.4891 128.988 55.4889 129.471 55.4391 129.939C55.2575 131.64 55.9048 132.319 57.7017 132.286C62.6649 132.196 67.631 132.269 72.5959 132.277C73.5348 132.278 74.4737 132.277 75.8463 132.277C75.8463 133.902 75.8463 135.363 75.8423 137.033Z" fill="#D40A15"/>
<path d="M253.183 118.91C262.531 118.907 271.654 118.907 280.955 118.907C280.955 121.261 280.955 123.433 280.955 125.998C280.114 125.998 279.209 125.999 278.303 125.998C272.315 125.993 266.324 126.056 260.337 125.943C258.358 125.906 257.527 126.352 257.623 128.535C257.801 132.601 257.04 132.254 261.466 132.276C266.194 132.3 270.922 132.319 275.65 132.354C276.344 132.359 277.039 132.44 277.892 132.496C277.892 134.562 277.892 136.485 277.892 138.664C271.191 138.664 264.524 138.664 257.692 138.664C257.692 140.768 257.692 142.62 257.692 144.771C265.412 144.771 273.094 144.771 281 144.771C281 147.227 281 149.392 281 151.75C270.608 151.75 260.181 151.75 249.386 151.75C249.386 150.887 249.385 150.057 249.386 149.226C249.398 140.321 249.409 131.417 249.422 122.512C249.429 118.415 249.175 119.019 253.183 118.91Z" fill="#D40A15"/>
<path d="M146.197 126.322C146.196 132.529 146.196 138.499 146.196 144.799C153.332 144.799 160.285 144.799 167.401 144.799C167.401 147.292 167.401 149.458 167.401 151.777C157.661 151.777 147.948 151.777 138.081 151.777C138.081 140.882 138.081 130.119 138.081 119.113C140.707 119.113 143.245 119.113 146.198 119.113C146.198 121.443 146.198 123.764 146.197 126.322Z" fill="#D50A14"/>
<path d="M185.472 122.127C185.471 132.094 185.471 141.832 185.471 151.739C182.631 151.739 180.076 151.739 177.365 151.739C177.365 140.868 177.365 130.045 177.365 119.051C180.06 119.051 182.605 119.051 185.472 119.051C185.472 120.065 185.472 120.982 185.472 122.127Z" fill="#D90C16"/>
</svg>
